<mxfile host="app.diagrams.net" modified="2023-02-01T09:26:30.466Z" agent="5.0 (Windows NT 10.0; Win64; x64) AppleWebKit/537.36 (KHTML, like Gecko) Chrome/109.0.0.0 Safari/537.36" etag="nXs3eYQ1UOkCw8IOIh_M" version="20.8.14" type="github">
  <diagram name="Page-1" id="ExTGUEEQHUEDQQg5NHdS">
    <mxGraphModel dx="794" dy="430" grid="1" gridSize="10" guides="1" tooltips="1" connect="1" arrows="1" fold="1" page="1" pageScale="1" pageWidth="850" pageHeight="1100" math="0" shadow="0">
      <root>
        <mxCell id="0" />
        <mxCell id="1" parent="0" />
        <mxCell id="WPRdaX7cA5M4LaGkUmcf-1" value="" style="ellipse;whiteSpace=wrap;html=1;aspect=fixed;" parent="1" vertex="1">
          <mxGeometry x="39" y="80" width="60" height="60" as="geometry" />
        </mxCell>
        <mxCell id="WPRdaX7cA5M4LaGkUmcf-17" value="&lt;font style=&quot;font-size: 8px;&quot;&gt;Requirements&lt;/font&gt;" style="text;html=1;strokeColor=none;fillColor=none;align=center;verticalAlign=middle;whiteSpace=wrap;rounded=0;" parent="1" vertex="1">
          <mxGeometry x="39" y="95" width="60" height="30" as="geometry" />
        </mxCell>
        <mxCell id="QzSWRC7JeWqAxSKZvHJS-10" value="" style="ellipse;whiteSpace=wrap;html=1;aspect=fixed;" vertex="1" parent="1">
          <mxGeometry x="200" y="80" width="60" height="60" as="geometry" />
        </mxCell>
        <mxCell id="QzSWRC7JeWqAxSKZvHJS-11" value="&lt;font style=&quot;font-size: 8px;&quot;&gt;Requirements&lt;/font&gt;" style="text;html=1;strokeColor=none;fillColor=none;align=center;verticalAlign=middle;whiteSpace=wrap;rounded=0;" vertex="1" parent="1">
          <mxGeometry x="200" y="95" width="60" height="30" as="geometry" />
        </mxCell>
        <mxCell id="QzSWRC7JeWqAxSKZvHJS-12" value="" style="ellipse;whiteSpace=wrap;html=1;aspect=fixed;" vertex="1" parent="1">
          <mxGeometry x="365" y="80" width="60" height="60" as="geometry" />
        </mxCell>
        <mxCell id="QzSWRC7JeWqAxSKZvHJS-13" value="&lt;font style=&quot;font-size: 8px;&quot;&gt;Requirements&lt;/font&gt;" style="text;html=1;strokeColor=none;fillColor=none;align=center;verticalAlign=middle;whiteSpace=wrap;rounded=0;" vertex="1" parent="1">
          <mxGeometry x="365" y="95" width="60" height="30" as="geometry" />
        </mxCell>
        <mxCell id="QzSWRC7JeWqAxSKZvHJS-14" value="" style="ellipse;whiteSpace=wrap;html=1;aspect=fixed;" vertex="1" parent="1">
          <mxGeometry x="520" y="80" width="60" height="60" as="geometry" />
        </mxCell>
        <mxCell id="QzSWRC7JeWqAxSKZvHJS-15" value="&lt;font style=&quot;font-size: 8px;&quot;&gt;Requirements&lt;/font&gt;" style="text;html=1;strokeColor=none;fillColor=none;align=center;verticalAlign=middle;whiteSpace=wrap;rounded=0;" vertex="1" parent="1">
          <mxGeometry x="520" y="95" width="60" height="30" as="geometry" />
        </mxCell>
        <mxCell id="QzSWRC7JeWqAxSKZvHJS-18" value="" style="ellipse;whiteSpace=wrap;html=1;aspect=fixed;" vertex="1" parent="1">
          <mxGeometry x="660" y="80" width="60" height="60" as="geometry" />
        </mxCell>
        <mxCell id="QzSWRC7JeWqAxSKZvHJS-19" value="&lt;font style=&quot;font-size: 8px;&quot;&gt;Requirements&lt;/font&gt;" style="text;html=1;strokeColor=none;fillColor=none;align=center;verticalAlign=middle;whiteSpace=wrap;rounded=0;" vertex="1" parent="1">
          <mxGeometry x="660" y="95" width="60" height="30" as="geometry" />
        </mxCell>
      </root>
    </mxGraphModel>
  </diagram>
</mxfile>
